<?xml version="1.0" encoding="utf-8"?>
<!-- Generator: Adobe Illustrator 24.3.0, SVG Export Plug-In . SVG Version: 6.00 Build 0)  -->
<svg version="1.1" id="Layer_1" xmlns="http://www.w3.org/2000/svg" xmlns:xlink="http://www.w3.org/1999/xlink" x="0px" y="0px"
	 viewBox="0 0 566.9 283.5" enable-background="new 0 0 566.9 283.5" xml:space="preserve">
<g>
	<g transform="translate(164.490418, 217.449845)">
		<g>
			<path fill="#5BBA4E" d="M134.2-50.6l-7.1,9.2L79.4-101l47.6-59.8l7.1,9.4L94-101L134.2-50.6z"/>
		</g>
	</g>
</g>
<g>
	<g transform="translate(180.22423, 236.754858)">
		<g>
			<path fill="#22205F" d="M150.8-62.7L103.2-2.9l-7.3-9.2L136-62.7l-40.1-50.4l7.3-9.4L150.8-62.7z"/>
		</g>
	</g>
</g>
<path fill="#22205F" stroke="#22205F" stroke-width="11" stroke-miterlimit="20.0038" d="M30.8,228.1h252.5"/>
<path fill="none" stroke="#5BBA4E" stroke-width="11.9" stroke-miterlimit="20.0038" d="M291.5,62.4h244.6"/>
<path fill="#22205F" stroke="#22205F" stroke-width="2" stroke-miterlimit="20.0038" d="M560.4,233.4c-1.3-45.9-2.5-104.4-3-150.6
	l-0.6-50.1l3.6,3.8c-148.5,1.2-297.1,1-445.6-2c-21.3-0.4-42.4-0.9-63.6-1.6c21.3-0.7,42.4-1.2,63.6-1.6
	c149.7-3.2,299.5-3.4,449.2-2C563.4,94.2,562.3,168.7,560.4,233.4L560.4,233.4z"/>
<path fill="#22205F" stroke="#22205F" stroke-width="2" stroke-miterlimit="20.0038" d="M6.5,51.5C7.8,98.6,9,158.8,9.7,206
	l0.6,51.5l-3.6-3.7c149.6-1.2,299.2-1.2,448.9,2.1c21.4,0.4,42.7,0.9,64.1,1.6c-21.4,0.7-42.7,1.2-64.1,1.6
	c-150.8,3.3-301.7,3.4-452.5,2.1C3.4,194.5,4.6,118.1,6.5,51.5z"/>
<g>
	<g>
		<g>
			<path fill="#5BBA4E" d="M332.2,73.4h35.6c5.9,0,10.8,4.1,14.7,12.2c3.6,7.5,5.3,17.6,5.3,30.1c0,10-1.6,18.5-4.9,25.4
				c-1.8,3.8-4,6.6-6.7,8.5c3.6,2.5,6.4,6,8.5,10.3c3.6,7.5,5.3,16.9,5.3,28.2c0,13.8-2.2,25.4-6.7,34.8c-3.6,7.5-8.9,11.3-16,11.3
				h-35.1V73.4z M342.4,91.2v49.9h24c3,0,5.5-2.2,7.6-6.6c2.4-5,3.6-11.6,3.6-19.8c0-6.9-1.2-12.8-3.6-17.9c-1.8-3.8-4-5.6-6.7-5.6
				H342.4z M342.4,159v57.4h22.7c4.4,0,7.9-2.5,10.2-7.5c2.7-5.6,4-12.5,4-20.7c0-8.8-1.2-15.7-3.6-20.7c-2.7-5.6-6.2-8.5-10.7-8.5
				H342.4z"/>
			<path fill="#5BBA4E" d="M398.4,234.2l30.2-162.8h8.9l30.2,162.8h-10.7l-9.3-48.9h-29.4l-9.3,48.9H398.4z M433.1,102.5l-11.6,64.9
				h23.1L433.1,102.5z"/>
			<path fill="#5BBA4E" d="M470,73.4h10.7l21.8,73.4l21.8-73.4H535l-27.1,89.4v71.5h-10.2v-71.5L470,73.4z"/>
		</g>
	</g>
</g>
<g>
	<g>
		<g>
			<path fill="#22205F" d="M32.5,57.3h26.7c8.9,0,16.5,6.6,22.7,19.8c6.5,13.8,9.8,34.5,9.8,62.1c0,26.3-3.4,46.7-10.2,61.2
				c-5.6,11.9-13.1,17.9-22.2,17.9H32.5V57.3z M42.8,75.2v125.1h16c5.6,0,10.2-3.8,13.8-11.3c5.6-11.9,8.5-28.5,8.5-49.9
				c0-22.6-2.7-39.5-8-50.8c-4.2-8.8-8.9-13.2-14.2-13.2H42.8z"/>
			<path fill="#22205F" d="M106.4,57.3h48.9v17.9h-38.7V125h36v17.9h-36v57.4h40.9v17.9h-51.1V57.3z"/>
			<path fill="#22205F" d="M165.1,56.3h10.7l23.6,130.8l23.6-130.8h10.7l-30.2,162.8h-8L165.1,56.3z"/>
		</g>
	</g>
</g>
<g>
</g>
<g>
</g>
<g>
</g>
<g>
</g>
<g>
</g>
<g>
</g>
</svg>
