<?xml version="1.0" encoding="utf-8"?>
<!-- Generator: Adobe Illustrator 24.3.0, SVG Export Plug-In . SVG Version: 6.00 Build 0)  -->
<svg version="1.1" id="Layer_1" xmlns="http://www.w3.org/2000/svg" xmlns:xlink="http://www.w3.org/1999/xlink" x="0px" y="0px"
	 viewBox="0 0 500 500" style="enable-background:new 0 0 500 500;" xml:space="preserve">
<style type="text/css">
	.st0{fill:#000066;}
	.st1{opacity:0.7;fill:#FFFFFF;enable-background:new    ;}
	.st2{fill:#263238;stroke:#263238;stroke-linecap:round;stroke-linejoin:round;}
	.st3{fill:#FFFFFF;stroke:#263238;stroke-linecap:round;stroke-linejoin:round;}
	.st4{fill:#FFFFFF;}
	.st5{fill:#FFFFFF;stroke:#263238;stroke-width:0.7043;stroke-linecap:round;stroke-linejoin:round;}
	.st6{fill:#263238;}
	.st7{fill:#D9D9D9;stroke:#263238;stroke-linecap:round;stroke-linejoin:round;}
	.st8{fill:#000066;stroke:#263238;stroke-linecap:round;stroke-linejoin:round;}
	.st9{fill:none;stroke:#263238;stroke-linecap:round;stroke-linejoin:round;}
	.st10{fill:#000066;stroke:#263238;stroke-miterlimit:10;}
	.st11{fill:#D9D9D9;stroke:#263238;stroke-miterlimit:10;}
	.st12{fill:#263238;stroke:#263238;stroke-miterlimit:10;}
	.st13{fill:none;stroke:#808080;stroke-linecap:round;stroke-linejoin:round;}
	.st14{fill:#FFFFFF;stroke:#263238;stroke-miterlimit:10;}
</style>
<g id="freepik--background-simple--inject-67">
	<path class="st0" d="M324.2,23.4c0,0-72.7-25.9-144.1,15.3S72.6,161.6,41.7,227.1S28.6,359.1,83.1,389.5s91.6-14.4,168-16.6
		s97,8.8,160.5-34.4s74.9-145.2,24.9-220.7S324.2,23.4,324.2,23.4z"/>
	<path class="st1" d="M324.2,23.4c0,0-72.7-25.9-144.1,15.3S72.6,161.6,41.7,227.1S28.6,359.1,83.1,389.5s91.6-14.4,168-16.6
		s97,8.8,160.5-34.4s74.9-145.2,24.9-220.7S324.2,23.4,324.2,23.4z"/>
</g>
<g id="freepik--Plants--inject-67">
	<path class="st0" d="M454.4,398.2c-4-0.6-11.6-5.5-11.6-5.5s4.8-4,5.1-4.2c3.9-2.5,12.9-5,16.9-1.7c2.5,2.2,2.8,6.1,0.6,8.6
		c-0.1,0.2-0.3,0.3-0.5,0.5C462.2,398.3,457.8,398.6,454.4,398.2z"/>
	<path class="st0" d="M379.8,359.8c-0.1,0,1.8-6,1.9-6.4c1.9-4.2,8-11.3,13.1-10.7c3.3,0.4,5.7,3.5,5.3,6.9c0,0.2-0.1,0.4-0.1,0.6
		c-0.7,3.6-4.3,6.3-7.4,7.8C388.9,359.7,379.8,359.8,379.8,359.8z"/>
	<path class="st0" d="M372.3,459.8c-1.8,2.2-3.4,4.3-4.8,6.2h-3.6c1.8-2.4,4-5,6.4-7.9c1.4-1.7,2.9-3.4,4.5-5.2
		c-1.4-1.8-2.8-3.6-4-5.5c-3.2,1.1-9.9,0.8-10.8,0.8c-0.2,2.1-0.5,4.2-0.6,6.2c-0.4,4.5-0.7,8.4-0.8,11.7h-3c0.2-3.4,0.6-7.4,1.1-12
		c0.2-2.2,0.5-4.5,0.9-6.9c-0.8-0.2-7.6-2.4-10.1-4.6c-2.3-2-4.6-5.2-4.4-8.4c0.1-3,2.6-5.3,5.6-5.1c0.2,0,0.4,0,0.6,0.1
		c4.5,0.8,7.9,8.3,8.4,12.3c0,0.2,0.1,2.9,0.1,4.5c0.1-1,0.3-1.9,0.4-2.9c0.3-2,0.7-3.9,1-6c0.2-1,0.4-2,0.7-3.1s0.5-2.1,0.8-3.1
		c0.7-2.4,1.5-4.9,2.3-7.3c-1.7-0.3-7.9-1.3-10.4-3s-5.3-4.4-5.6-7.6c-0.3-3,1.8-5.6,4.7-6c0.2,0,0.4,0,0.6,0c4.5,0.1,9,7,10.2,10.9
		c0.1,0.2,0.6,3.1,0.8,4.7c0.5-1.5,1-2.9,1.6-4.4c1.7-4.2,3.5-8.4,5.3-12.6c0.5-1.3,1.1-2.6,1.6-3.9c-0.6-0.1-7.9-1.2-10.8-3
		c-2.5-1.6-5.3-4.4-5.6-7.6c-0.3-3,1.8-5.6,4.7-6c0.2,0,0.4,0,0.6,0c4.5,0.1,9,7,10.2,10.9c0.1,0.3,0.8,4.4,0.9,5.5
		c1.2-2.9,2.4-5.7,3.4-8.5c1.4-3.8,2.6-7.8,3.5-11.8c-0.3,0-7.9-1.1-10.9-3c-2.5-1.6-5.3-4.4-5.6-7.6c-0.3-3,1.8-5.6,4.7-6
		c0.2,0,0.4,0,0.6,0c4.5,0.1,9,7,10.2,10.9c0.1,0.3,0.6,3.4,0.9,4.9h0.3c0.8-4,1.2-8.2,1.3-12.3c0.1-2.3,0-4.4-0.1-6.5
		c-1.4-0.1-8-0.4-10.9-1.8s-5.8-3.8-6.4-7c-0.6-2.9,1.2-5.8,4.1-6.4c0.2,0,0.4-0.1,0.5-0.1c4.5-0.4,9.7,5.9,11.3,9.7
		c0.1,0.2,0.7,2.4,1.2,4c-0.1-1-0.1-1.9-0.2-2.9c-0.3-3.4-0.8-6.5-1.2-9.3c-0.3-1.6-0.5-3-0.8-4.3c-1.4-0.8-6.9-4.1-8.8-6.6
		s-3.4-6.1-2.4-9.1c0.8-2.9,3.7-4.6,6.6-3.8c0.2,0,0.4,0.1,0.5,0.2c4.2,1.8,5.9,9.8,5.6,13.8c0,0.4-1.1,5.8-1.2,5.7l-0.1,0
		c0.3,1.3,0.6,2.6,0.9,4.1c0.5,2.8,1,5.9,1.4,9.3c0.4,3.7,0.6,7.4,0.6,11.1c0,4.2-0.3,8.3-1,12.4c0,0,0,0.1,0,0.1
		c0.6-1.2,2.5-4.4,2.6-4.6c2.4-3.3,9-8.2,13.3-6.8c2.8,1,4.2,4.1,3.2,6.9c-0.1,0.2-0.1,0.4-0.2,0.5c-1.3,2.9-4.9,4.6-7.8,5.3
		c-3.3,0.8-10.6-0.7-11.2-0.8c-0.8,4.2-1.9,8.2-3.3,12.2c-0.8,2.3-1.7,4.7-2.6,7c0.6-1,1.1-1.9,1.2-2c2.4-3.3,8.9-8.2,13.3-6.8
		c2.8,1,4.2,4.1,3.2,6.9c-0.1,0.2-0.1,0.4-0.2,0.5c-1.3,2.9-4.9,4.6-7.8,5.3s-9.2-0.5-10.9-0.8c-0.4,0.9-0.7,1.8-1.1,2.7
		c-1.7,4.3-3.5,8.5-5,12.7c-0.5,1.5-1,3-1.5,4.5c0.5-0.9,0.9-1.6,1-1.7c2.4-3.3,8.9-8.2,13.3-6.8c2.8,1,4.2,4.1,3.2,6.9
		c-0.1,0.2-0.1,0.4-0.2,0.5c-1.3,2.9-4.9,4.6-7.8,5.3s-8.6-0.3-10.6-0.7c-0.5,1.5-0.9,3.1-1.3,4.6c-0.2,1-0.5,2-0.7,3.1
		s-0.4,2.1-0.6,3.1c-0.3,2-0.6,4-0.9,5.9c-0.2,1.3-0.3,2.6-0.5,3.9c0.5-1.5,1.6-4.4,1.8-4.6c1.8-3.1,4.3-5.7,7.4-7.5
		c0.2-0.4,0.4-0.7,0.6-1c1.7-2.4,5.1-2.9,7.5-1.2c0.2,0.1,0.3,0.2,0.5,0.4c3.3,3.1,2,11.2,0.2,14.9c-0.1,0.2-1.5,2.4-2.4,3.8
		c0.7-0.7,1.3-1.5,2-2.2c1.3-1.5,2.7-2.9,4.2-4.5l2.2-2.2c0.7-0.8,1.6-1.5,2.4-2.2c1.9-1.7,3.9-3.3,6-4.8c-1.3-1.2-5.8-5.4-7-8.2
		s-2-6.6-0.4-9.4c1.4-2.6,4.6-3.7,7.3-2.3c0.2,0.1,0.3,0.2,0.5,0.3c3.7,2.6,3.7,10.8,2.5,14.7c-0.1,0.2-1.2,2.9-1.9,4.4
		c1.2-0.9,2.5-1.9,3.8-2.8c3.7-2.6,7.6-5.1,11.4-7.6l3.5-2.3c-0.5-0.4-6-5.3-7.3-8.5c-1.2-2.8-2-6.6-0.4-9.5
		c1.4-2.6,4.6-3.7,7.2-2.3c0.2,0.1,0.3,0.2,0.5,0.3c3.7,2.6,3.7,10.8,2.5,14.7c-0.1,0.3-1.8,4.2-2.3,5.1c2.6-1.7,5.1-3.5,7.5-5.3
		c3.3-2.4,6.4-5.1,9.4-7.9c-0.2-0.2-6-5.3-7.4-8.5c-1.2-2.8-2-6.6-0.4-9.4c1.4-2.6,4.6-3.7,7.2-2.3c0.2,0.1,0.3,0.2,0.5,0.3
		c3.7,2.6,3.7,10.8,2.5,14.7c-0.1,0.3-1.4,3.2-2,4.6c0.1,0,0.1,0.1,0.2,0.1c2.9-2.9,5.5-6.1,7.9-9.5c1.3-1.9,2.5-3.7,3.5-5.5
		c-1.2-0.9-6.5-4.8-8-7.5s-2.7-6.4-1.5-9.3c1.1-2.8,4.2-4.2,6.9-3.1c0.2,0.1,0.4,0.2,0.5,0.2c4,2.2,4.9,10.3,4.1,14.3
		c0,0.2-0.7,2.4-1.2,3.9c0.5-0.8,1-1.7,1.4-2.5c1.6-3,3-5.9,4.1-8.4c0.6-1.5,1.2-2.8,1.7-4c-0.7-1.4-3.5-7.2-3.7-10.3s0.5-6.9,3-9
		c2.2-2,5.6-1.8,7.6,0.4c0.1,0.1,0.3,0.3,0.4,0.5c2.5,3.8-0.5,11.4-3,14.6c-0.2,0.3-4.1,4.2-4.1,4.1l0-0.1c-0.5,1.2-1,2.5-1.5,3.9
		c-1.1,2.6-2.4,5.5-4,8.5c-1.7,3.3-3.5,6.5-5.6,9.6c-2.3,3.5-4.9,6.8-7.7,9.8c0,0-0.1,0.1-0.1,0.1c1.2-0.6,4.5-2.3,4.8-2.4
		c3.8-1.4,12-1.9,14.8,1.7c1.8,2.4,1.3,5.7-1.1,7.5c-0.2,0.1-0.3,0.2-0.5,0.3c-2.7,1.7-6.6,1.1-9.5,0.1c-3.2-1.2-8.4-6.4-8.9-6.9
		c-3,3-6.2,5.8-9.5,8.4c-2,1.5-4,3-6,4.4c1-0.5,2-1,2.1-1c3.8-1.4,12-1.9,14.8,1.7c1.8,2.4,1.3,5.7-1.1,7.5
		c-0.2,0.1-0.3,0.2-0.5,0.3c-2.7,1.7-6.6,1.2-9.5,0.1s-7.4-5.5-8.6-6.6c-0.8,0.5-1.6,1.1-2.4,1.6c-3.8,2.6-7.6,5.2-11.2,7.8
		c-1.3,0.9-2.5,1.9-3.7,2.9c0.9-0.5,1.7-0.9,1.8-0.9c3.8-1.4,12-1.9,14.8,1.7c1.8,2.4,1.3,5.7-1.1,7.5c-0.2,0.1-0.3,0.2-0.5,0.3
		c-2.7,1.7-6.6,1.2-9.5,0.1s-7-5-8.4-6.4c-1.2,1-2.5,2-3.6,3.1c-0.8,0.7-1.6,1.4-2.3,2.2l-2.2,2.2c-1.3,1.5-2.7,3-4,4.5
		c-0.9,1-1.7,2-2.6,3c1.3-0.9,3.8-2.7,4-2.9c3.5-2,11.5-3.7,14.9-0.6c2.1,2.1,2.1,5.5,0.1,7.6c-0.1,0.1-0.3,0.3-0.4,0.4
		c-2.5,2-6.4,2-9.4,1.5c-3.3-0.7-9-4.9-9.7-5.4C374.9,456.7,373.5,458.3,372.3,459.8z"/>
	<path class="st0" d="M328.4,398.2c-4-0.6-11.6-5.5-11.6-5.5s4.8-4,5.1-4.2c3.9-2.5,12.9-5,16.9-1.7c2.5,2.2,2.8,6.1,0.6,8.6
		c-0.1,0.2-0.3,0.3-0.5,0.5C336.2,398.3,331.8,398.6,328.4,398.2z"/>
	<path class="st0" d="M253.8,359.8c-0.1,0,1.8-6,1.9-6.4c1.9-4.2,8-11.3,13.1-10.7c3.3,0.4,5.7,3.5,5.3,6.9c0,0.2-0.1,0.4-0.1,0.6
		c-0.7,3.6-4.3,6.3-7.4,7.8C262.9,359.7,253.8,359.8,253.8,359.8z"/>
	<path class="st0" d="M246.3,459.8c-1.8,2.2-3.4,4.3-4.8,6.2h-3.6c1.8-2.4,4-5,6.4-7.9c1.4-1.7,2.9-3.4,4.5-5.2
		c-1.4-1.8-2.8-3.6-4-5.5c-3.2,1.1-9.9,0.8-10.8,0.8c-0.2,2.1-0.5,4.2-0.6,6.2c-0.4,4.5-0.7,8.4-0.8,11.7h-2.9
		c0.2-3.4,0.6-7.4,1.1-12c0.2-2.2,0.6-4.5,0.9-6.9c-0.8-0.2-7.6-2.4-10.1-4.6c-2.3-2-4.6-5.2-4.4-8.4c0.1-3,2.6-5.3,5.6-5.1
		c0.2,0,0.4,0,0.6,0.1c4.5,0.8,7.9,8.3,8.4,12.3c0,0.2,0.1,2.9,0.1,4.5c0.1-1,0.3-1.9,0.4-2.9c0.3-2,0.7-3.9,1-6
		c0.2-1,0.4-2,0.7-3.1s0.5-2.1,0.8-3.1c0.7-2.4,1.5-4.9,2.3-7.3c-1.7-0.3-7.9-1.3-10.4-3s-5.3-4.4-5.6-7.6c-0.3-3,1.8-5.6,4.7-6
		c0.2,0,0.4,0,0.6,0c4.5,0.1,9,7,10.2,10.9c0.1,0.2,0.6,3.1,0.8,4.7c0.5-1.5,1-2.9,1.6-4.4c1.7-4.2,3.5-8.4,5.3-12.6
		c0.6-1.3,1.1-2.6,1.6-3.9c-0.6-0.1-7.9-1.2-10.8-3c-2.5-1.6-5.3-4.4-5.6-7.6c-0.3-3,1.8-5.6,4.7-6c0.2,0,0.4,0,0.6,0
		c4.5,0.1,9,7,10.2,10.9c0.1,0.3,0.8,4.4,0.9,5.5c1.2-2.9,2.4-5.7,3.4-8.5c1.4-3.8,2.6-7.8,3.5-11.8c-0.3,0-7.9-1.1-10.9-3
		c-2.5-1.6-5.3-4.4-5.6-7.6c-0.3-3,1.8-5.6,4.7-6c0.2,0,0.4,0,0.6,0c4.5,0.1,9,7,10.2,10.9c0.1,0.3,0.6,3.4,0.9,4.9h0.3
		c0.8-4,1.2-8.2,1.3-12.3c0.1-2.3,0-4.4-0.1-6.5c-1.4-0.1-8-0.4-10.9-1.8s-5.8-3.8-6.4-7c-0.6-2.9,1.2-5.8,4.1-6.4
		c0.2,0,0.4-0.1,0.5-0.1c4.5-0.4,9.8,5.9,11.3,9.7c0.1,0.2,0.7,2.4,1.2,4c-0.1-1-0.1-1.9-0.2-2.9c-0.3-3.4-0.8-6.5-1.2-9.3
		c-0.3-1.6-0.5-3-0.8-4.3c-1.4-0.8-6.9-4.1-8.8-6.6s-3.4-6.1-2.4-9.1c0.8-2.9,3.7-4.6,6.6-3.8c0.2,0,0.4,0.1,0.5,0.2
		c4.2,1.8,5.9,9.8,5.6,13.8c0,0.4-1.1,5.8-1.2,5.7l-0.1,0c0.3,1.3,0.6,2.6,0.9,4.1c0.5,2.8,1.1,5.9,1.4,9.3
		c0.4,3.7,0.6,7.4,0.6,11.1c0,4.2-0.3,8.3-1.1,12.4c0,0,0,0.1,0,0.1c0.6-1.2,2.5-4.4,2.6-4.6c2.4-3.3,9-8.2,13.3-6.8
		c2.8,1,4.2,4.1,3.2,6.9c-0.1,0.2-0.1,0.4-0.2,0.5c-1.3,2.9-4.9,4.6-7.8,5.3c-3.3,0.8-10.6-0.7-11.2-0.8c-0.8,4.2-1.9,8.2-3.3,12.2
		c-0.8,2.3-1.7,4.7-2.6,7c0.6-1,1.1-1.9,1.2-2c2.4-3.3,8.9-8.2,13.3-6.8c2.8,1,4.2,4.1,3.2,6.9c-0.1,0.2-0.1,0.4-0.2,0.5
		c-1.3,2.9-4.9,4.6-7.8,5.3s-9.2-0.5-10.9-0.8c-0.4,0.9-0.7,1.8-1.1,2.7c-1.7,4.3-3.4,8.5-5,12.7c-0.6,1.5-1,3-1.5,4.5
		c0.5-0.9,0.9-1.6,1-1.7c2.4-3.3,8.9-8.2,13.3-6.8c2.8,1,4.2,4.1,3.2,6.9c-0.1,0.2-0.1,0.4-0.2,0.5c-1.3,2.9-4.9,4.6-7.8,5.3
		s-8.6-0.3-10.6-0.7c-0.5,1.5-0.9,3.1-1.3,4.6c-0.2,1-0.5,2-0.7,3.1s-0.4,2.1-0.6,3.1c-0.3,2-0.6,4-0.9,5.9
		c-0.2,1.3-0.3,2.6-0.5,3.9c0.5-1.5,1.6-4.4,1.8-4.6c1.8-3.1,4.3-5.7,7.4-7.5c0.2-0.4,0.4-0.7,0.6-1c1.7-2.4,5.1-3,7.5-1.2
		c0.2,0.1,0.3,0.3,0.5,0.4c3.3,3.1,2,11.2,0.2,14.9c-0.1,0.2-1.5,2.4-2.4,3.8c0.7-0.7,1.3-1.5,2-2.2c1.3-1.5,2.7-2.9,4.2-4.5
		l2.2-2.2c0.7-0.8,1.6-1.5,2.4-2.2c1.9-1.7,3.9-3.3,6-4.8c-1.3-1.2-5.8-5.4-7-8.2s-2-6.6-0.4-9.4c1.4-2.6,4.6-3.7,7.3-2.3
		c0.2,0.1,0.3,0.2,0.5,0.3c3.7,2.6,3.7,10.8,2.5,14.7c-0.1,0.2-1.2,2.9-1.9,4.4c1.2-0.9,2.5-1.9,3.8-2.8c3.7-2.6,7.6-5.1,11.4-7.6
		l3.5-2.3c-0.5-0.4-6-5.3-7.3-8.5c-1.2-2.8-2-6.6-0.4-9.5c1.4-2.6,4.6-3.7,7.2-2.3c0.2,0.1,0.3,0.2,0.5,0.3
		c3.7,2.6,3.7,10.8,2.5,14.7c-0.1,0.3-1.8,4.2-2.3,5.1c2.6-1.7,5.1-3.5,7.5-5.3c3.3-2.4,6.4-5.1,9.4-7.9c-0.2-0.2-6-5.3-7.4-8.5
		c-1.2-2.8-2-6.6-0.4-9.4c1.4-2.6,4.6-3.7,7.2-2.3c0.2,0.1,0.3,0.2,0.5,0.3c3.7,2.6,3.7,10.8,2.5,14.7c-0.1,0.3-1.4,3.2-2,4.6
		c0.1,0,0.1,0.1,0.2,0.1c2.9-2.9,5.5-6.1,7.9-9.5c1.3-1.9,2.5-3.7,3.5-5.5c-1.2-0.9-6.5-4.8-8-7.5s-2.7-6.4-1.5-9.3
		c1.1-2.8,4.2-4.2,6.9-3.1c0.2,0.1,0.4,0.2,0.5,0.2c4,2.2,4.9,10.3,4.1,14.3c0,0.2-0.7,2.4-1.2,3.9c0.5-0.8,1-1.7,1.4-2.5
		c1.6-3,3-5.9,4.1-8.4c0.6-1.5,1.2-2.8,1.7-4c-0.7-1.4-3.5-7.2-3.7-10.3s0.5-6.9,3-9c2.2-2,5.6-1.8,7.6,0.4c0.1,0.1,0.3,0.3,0.4,0.5
		c2.5,3.8-0.5,11.4-3,14.6c-0.2,0.3-4.1,4.2-4.1,4.1l0-0.1c-0.5,1.2-1,2.5-1.5,3.9c-1.1,2.6-2.4,5.5-4,8.5c-1.7,3.3-3.5,6.5-5.6,9.6
		c-2.3,3.5-4.9,6.8-7.7,9.8c0,0-0.1,0.1-0.1,0.1c1.2-0.6,4.5-2.3,4.8-2.4c3.8-1.4,12-1.9,14.8,1.7c1.8,2.4,1.3,5.7-1.1,7.5
		c-0.2,0.1-0.3,0.2-0.5,0.3c-2.7,1.7-6.6,1.1-9.5,0.1c-3.2-1.2-8.4-6.4-8.9-6.9c-3,3-6.2,5.8-9.5,8.4c-2,1.5-4,3-6,4.4
		c1-0.5,2-1,2.1-1c3.8-1.4,12-1.9,14.8,1.7c1.8,2.4,1.3,5.7-1.1,7.5c-0.2,0.1-0.3,0.2-0.5,0.3c-2.7,1.7-6.6,1.2-9.5,0.1
		s-7.4-5.5-8.6-6.6c-0.8,0.5-1.6,1.1-2.4,1.6c-3.8,2.6-7.6,5.2-11.2,7.8c-1.3,0.9-2.5,1.9-3.7,2.9c0.9-0.5,1.7-0.9,1.8-0.9
		c3.8-1.4,12-1.9,14.8,1.7c1.8,2.4,1.3,5.7-1.1,7.5c-0.2,0.1-0.3,0.2-0.5,0.3c-2.7,1.7-6.6,1.2-9.5,0.1s-7-5-8.4-6.4
		c-1.2,1-2.5,2-3.6,3.1c-0.8,0.7-1.6,1.4-2.3,2.2l-2.2,2.2c-1.3,1.5-2.7,3-4,4.5c-0.9,1-1.7,2-2.6,3c1.3-0.9,3.8-2.7,4-2.9
		c3.5-2,11.5-3.7,14.9-0.6c2.1,2.1,2.1,5.5,0.1,7.6c-0.1,0.1-0.3,0.3-0.4,0.4c-2.6,2-6.5,2-9.5,1.5c-3.3-0.7-9-4.9-9.7-5.4
		C248.9,456.7,247.5,458.3,246.3,459.8z"/>
	<path class="st0" d="M48.3,405.7c3.6-0.5,10.3-4.9,10.3-4.9s-4.2-3.6-4.5-3.8c-3.5-2.2-11.4-4.5-15-1.5c-2.3,2-2.5,5.4-0.5,7.7
		c0.1,0.1,0.3,0.3,0.4,0.4C41.3,405.9,45.3,406.2,48.3,405.7z"/>
	<path class="st0" d="M114.6,371.6c0.1,0-1.6-5.3-1.7-5.6c-1.7-3.8-7.1-10-11.6-9.5c-3,0.4-5.1,3.1-4.7,6.1c0,0.2,0.1,0.4,0.1,0.6
		c0.7,3.2,3.8,5.6,6.6,6.9C106.5,371.6,114.6,371.6,114.6,371.6z"/>
	<path class="st0" d="M121.2,460.5c1.6,2,3,3.8,4.3,5.5h3.2c-1.6-2.1-3.5-4.5-5.7-7c-1.2-1.5-2.6-3.1-4-4.6c1.3-1.6,2.5-3.2,3.6-4.9
		c2.9,1,8.8,0.7,9.6,0.7c0.2,1.9,0.4,3.8,0.6,5.5c0.4,4,0.6,7.5,0.8,10.4h2.6c-0.2-3-0.5-6.6-1-10.7c-0.2-1.9-0.5-4-0.8-6.1
		c0.7-0.2,6.8-2.1,9-4.1c2-1.8,4.1-4.6,3.9-7.5c-0.1-2.6-2.4-4.7-5-4.6c-0.2,0-0.3,0-0.5,0c-4,0.7-7,7.3-7.5,10.9
		c0,0.2-0.1,2.5-0.1,4c-0.1-0.9-0.2-1.7-0.4-2.6c-0.3-1.8-0.6-3.5-0.9-5.4c-0.2-0.9-0.4-1.8-0.6-2.7s-0.5-1.9-0.7-2.8
		c-0.6-2.2-1.3-4.3-2.1-6.5c1.5-0.2,7-1.2,9.2-2.6s4.7-3.9,5-6.8c0.3-2.6-1.6-5-4.3-5.3c-0.2,0-0.3,0-0.5,0c-4,0.1-8,6.2-9,9.6
		c-0.1,0.2-0.5,2.8-0.7,4.2c-0.5-1.3-0.9-2.6-1.4-3.9c-1.5-3.7-3.1-7.5-4.7-11.2c-0.5-1.1-1-2.3-1.5-3.4c0.6-0.1,7-1,9.6-2.7
		c2.3-1.5,4.7-3.9,5-6.8c0.3-2.6-1.6-5-4.2-5.3c-0.2,0-0.3,0-0.5,0c-4,0.1-8,6.2-9,9.6c-0.1,0.3-0.7,4-0.8,4.9
		c-1.1-2.5-2.1-5.1-3-7.6c-1.3-3.4-2.3-6.9-3.1-10.5c0.2,0,7-1,9.6-2.7c2.3-1.5,4.7-3.9,5-6.8c0.3-2.6-1.6-5-4.2-5.3
		c-0.2,0-0.3,0-0.5,0c-4,0.1-8,6.2-9,9.6c-0.1,0.2-0.6,3-0.8,4.4h-0.2c-0.8-3.6-1.3-7.2-1.5-10.9c-0.1-2,0-4,0.1-5.8
		c1.3,0,7.1-0.3,9.6-1.6s5.1-3.4,5.7-6.2c0.6-2.6-1.1-5.1-3.6-5.7c-0.2,0-0.3-0.1-0.5-0.1c-4-0.3-8.7,5.3-10,8.6
		c-0.1,0.2-0.6,2.1-1,3.5c0.1-0.9,0.1-1.7,0.2-2.5c0.2-3,0.7-5.8,1.1-8.3c0.2-1.4,0.5-2.6,0.7-3.8c1.2-0.7,6.2-3.6,7.8-5.8
		s3-5.4,2.2-8.1c-0.7-2.6-3.3-4.1-5.9-3.4c-0.2,0-0.3,0.1-0.5,0.2c-3.7,1.6-5.3,8.7-5,12.3c0,0.3,1,5.1,1,5.1l0.2-0.1
		c-0.2,1.1-0.5,2.3-0.8,3.6c-0.4,2.5-0.9,5.2-1.2,8.3c-0.4,3.3-0.6,6.6-0.6,9.9c0,3.7,0.3,7.4,0.9,11v0.1c-0.6-1-2.2-3.9-2.3-4.1
		c-2.1-2.9-8-7.3-11.8-6c-2.5,0.9-3.8,3.6-2.9,6.1c0.1,0.2,0.1,0.3,0.2,0.5c1.2,2.6,4.3,4.1,7,4.7c3,0.7,9.4-0.6,9.9-0.7
		c0.8,3.7,1.8,7.3,3,10.9c0.7,2.1,1.5,4.1,2.3,6.2c-0.5-0.9-1-1.7-1-1.8c-2.1-2.9-7.9-7.3-11.8-6c-2.5,0.9-3.8,3.6-2.9,6.1
		c0.1,0.2,0.1,0.3,0.2,0.5c1.2,2.6,4.3,4.1,7,4.7s8.2-0.4,9.6-0.7c0.3,0.8,0.6,1.6,0.9,2.4c1.5,3.8,3.1,7.5,4.5,11.3
		c0.5,1.3,0.9,2.6,1.4,4c-0.4-0.8-0.8-1.5-0.9-1.5c-2.1-2.9-8-7.3-11.8-6c-2.5,0.9-3.8,3.6-2.9,6.1c0.1,0.2,0.1,0.3,0.2,0.5
		c1.2,2.6,4.3,4.1,7,4.7s7.6-0.3,9.4-0.6c0.4,1.4,0.8,2.7,1.2,4.1c0.2,0.9,0.5,1.8,0.6,2.7s0.4,1.8,0.5,2.7c0.3,1.8,0.6,3.5,0.8,5.3
		c0.2,1.2,0.3,2.3,0.4,3.5c-0.5-1.3-1.5-3.9-1.6-4.1c-1.6-2.8-3.8-5.1-6.5-6.7c-0.2-0.3-0.3-0.6-0.6-0.9c-1.6-2.1-4.5-2.6-6.7-1
		c-0.1,0.1-0.3,0.2-0.4,0.3c-2.9,2.8-1.8,10-0.2,13.2c0.1,0.2,1.3,2.1,2.1,3.4l-1.8-2c-1.2-1.3-2.4-2.6-3.7-4l-2-1.9
		c-0.7-0.7-1.4-1.3-2.1-1.9c-1.7-1.5-3.5-2.9-5.3-4.3c1.2-1,5.2-4.8,6.3-7.3s1.8-5.9,0.4-8.4c-1.2-2.3-4.1-3.3-6.5-2
		c-0.1,0.1-0.3,0.2-0.4,0.2c-3.3,2.3-3.3,9.6-2.2,13c0.1,0.2,1.1,2.6,1.7,3.9c-1.1-0.8-2.2-1.6-3.4-2.5c-3.3-2.3-6.7-4.5-10.1-6.8
		c-1-0.7-2.1-1.4-3.1-2.1c0.4-0.4,5.3-4.7,6.5-7.5c1.1-2.5,1.8-5.9,0.4-8.4c-1.2-2.3-4.1-3.3-6.5-2c-0.1,0.1-0.3,0.2-0.4,0.2
		c-3.3,2.3-3.3,9.6-2.2,13c0.1,0.3,1.6,3.7,2,4.5c-2.3-1.5-4.5-3.1-6.7-4.7c-2.9-2.1-5.7-4.5-8.3-7c0.2-0.2,5.3-4.7,6.6-7.6
		c1.1-2.5,1.8-5.9,0.4-8.4c-1.2-2.3-4.1-3.3-6.4-2.1c-0.2,0.1-0.3,0.2-0.4,0.3c-3.3,2.3-3.3,9.6-2.2,13c0.1,0.2,1.2,2.8,1.8,4.1
		c-0.1,0-0.1,0.1-0.2,0.1c-2.6-2.6-4.9-5.4-7-8.5c-1.2-1.6-2.2-3.3-3.1-4.9c1-0.8,5.8-4.2,7.2-6.6s2.4-5.7,1.3-8.3
		c-0.9-2.5-3.7-3.7-6.1-2.8c-0.2,0.1-0.3,0.1-0.5,0.2c-3.5,1.9-4.3,9.2-3.6,12.7c0,0.2,0.6,2.1,1.1,3.5c-0.4-0.7-0.9-1.5-1.3-2.2
		c-1.5-2.7-2.6-5.2-3.7-7.5c-0.6-1.3-1.1-2.5-1.5-3.6c0.6-1.3,3.1-6.4,3.3-9.2s-0.5-6.1-2.7-8c-2-1.8-5-1.6-6.7,0.4
		c-0.1,0.1-0.2,0.3-0.3,0.4c-2.2,3.4,0.4,10.1,2.6,13c0.2,0.2,3.7,3.7,3.7,3.6v-0.1c0.4,1.1,0.9,2.2,1.4,3.5c1,2.3,2.1,4.9,3.5,7.6
		c1.5,2.9,3.2,5.8,5,8.6c2,3.1,4.3,6,6.9,8.7l0.1,0.1c-1-0.6-4-2.1-4.2-2.1c-3.4-1.3-10.6-1.7-13.1,1.5c-1.6,2.1-1.2,5.1,0.9,6.7
		c0.1,0.1,0.3,0.2,0.5,0.3c2.4,1.5,5.9,1,8.4,0.1c2.8-1.1,7.5-5.7,7.9-6.1c2.7,2.7,5.5,5.2,8.5,7.5c1.7,1.4,3.5,2.6,5.3,3.9
		c-0.9-0.5-1.7-0.9-1.8-0.9c-3.4-1.2-10.7-1.7-13.1,1.5c-1.6,2.1-1.2,5.1,0.9,6.7c0.2,0.1,0.3,0.2,0.5,0.3c2.4,1.5,5.9,1,8.4,0.1
		s6.6-4.8,7.7-5.9l2.1,1.5c3.4,2.3,6.7,4.6,10,7c1.1,0.8,2.2,1.7,3.3,2.5c-0.8-0.4-1.5-0.8-1.6-0.8c-3.4-1.2-10.6-1.7-13.1,1.5
		c-1.6,2.1-1.2,5.1,0.9,6.7c0.2,0.1,0.3,0.2,0.5,0.3c2.4,1.5,5.9,1,8.4,0.1s6.2-4.5,7.5-5.7c1.1,0.9,2.2,1.8,3.2,2.8
		c0.7,0.6,1.4,1.2,2,1.9l2,2c1.2,1.3,2.4,2.7,3.6,4c0.8,0.9,1.5,1.8,2.3,2.7c-1.1-0.8-3.4-2.4-3.6-2.5c-3.2-1.8-10.3-3.3-13.2-0.5
		c-1.9,1.9-1.9,4.9,0,6.8c0.1,0.1,0.2,0.2,0.4,0.3c2.2,1.9,5.7,1.9,8.3,1.4c2.9-0.6,8-4.3,8.7-4.8
		C119,457.7,120.2,459.1,121.2,460.5z"/>
</g>
<g id="freepik--Device--inject-67">
	<path class="st2" d="M164.5,50h184.9c4.2,0,7.7,3.4,7.7,7.7v362.9c0,4.2-3.4,7.7-7.7,7.7H164.5c-4.2,0-7.7-3.4-7.7-7.7V57.7
		C156.9,53.5,160.3,50,164.5,50z"/>
	<rect x="165.8" y="91.6" class="st3" width="182.5" height="295.2"/>
	<path class="st4" d="M276.8,70.9h-39.7c-1.5,0-2.7-1.2-2.7-2.7l0,0c0-1.5,1.2-2.7,2.7-2.7c0,0,0,0,0,0h39.7c1.5,0,2.7,1.2,2.7,2.7
		c0,0,0,0,0,0l0,0C279.5,69.7,278.3,70.9,276.8,70.9L276.8,70.9z"/>
	<path class="st5" d="M267.8,403.4c0-6-4.8-10.8-10.8-10.8c-6,0-10.8,4.8-10.8,10.8c0,6,4.8,10.8,10.8,10.8
		C263,414.3,267.8,409.4,267.8,403.4C267.8,403.5,267.8,403.4,267.8,403.4z"/>
	<rect x="251.5" y="398" class="st6" width="11" height="11"/>
</g>
<g id="freepik--character-2--inject-67">
	<path class="st7" d="M361.8,274.8l-1.2,9c0,0-4.9,33.4-1.5,50.7s9.8,34.9,10.1,39.1s-1.9,20.3,0.8,33.4s7.5,39.1,7.5,39.1l-4.1,9.8
		c0,0-8.6,5.6-9.8,7.5c-0.6,0.7-0.4,1.8,0.3,2.4c0.1,0.1,0.3,0.2,0.5,0.3h27c0.8-2,1.2-4.2,1.1-6.4v-26.3c0-2.6,1.5-47.3,3-55.2
		s3-67.6,3-67.6h1.5c0,0,7.1,59.3,9,65.7s9.8,33.8,12,39.4s4.9,25.2,6.4,30c1.4,4.4,2.6,8.9,3.4,13.5c0.4,2.3,1,4.6,1.9,6.8H453
		c0,0,0.4-3.4-1.1-5.6s-11.3-12-12.8-19.2s2.3-40.2,1.9-51.8s-3.8-13.1-3.8-23.3s3.8-40.9,3.8-55.6s-2-28.1-5.7-35.9l-5.2-5.1h-64.6
		L361.8,274.8z"/>
	<path class="st8" d="M442.1,447.9L442.1,447.9c0,0-5.3-3.3-7.1-0.7s-1.9,4.1-1.9,4.1h-4c0.7,2.6,1.3,5.2,1.8,7.9
		c0.4,2.3,1,4.6,1.9,6.8H453c0,0,0.4-3.4-1.1-5.6C450.8,458.8,445.6,453.4,442.1,447.9z"/>
	<path class="st3" d="M432.7,466H453c0.1-0.9,0.1-1.7-0.1-2.6h-21.1C432.3,464.9,432.7,466,432.7,466z"/>
	<path class="st8" d="M392.5,459.6v-6.4h-7.1c0,0,0.4-3-3-5.3s-6.8,3-6.8,3h-0.2l-2.1,4.9c0,0-8.6,5.6-9.8,7.5
		c-0.6,0.7-0.4,1.8,0.3,2.4c0.1,0.1,0.3,0.2,0.5,0.3h27C392.2,464,392.6,461.8,392.5,459.6z"/>
	<path class="st3" d="M363.6,463.4c-0.6,0.7-0.4,1.8,0.3,2.4c0.1,0.1,0.3,0.2,0.4,0.2h27c0.4-0.8,0.6-1.7,0.8-2.6H363.6z"/>
	<path class="st3" d="M439,427.4c0.6-12.8,2.2-30.2,2-38c-0.4-11.6-3.8-13.1-3.8-23.3s3.8-40.9,3.8-55.6s-2-28.1-5.7-35.9l-5.2-5.1
		h-64.6l-3.7,5.3l-1.2,9c0,0-4.9,33.4-1.5,50.7s9.8,34.9,10.1,39.1s-1.9,20.3,0.8,33.4c1.2,5.8,2.7,14,4.2,21.4
		c6.1,1.4,12.3,1.9,18.5,1.7c0.3-10.9,1.6-45.2,2.9-52c1.5-7.9,3-67.6,3-67.6h1.5c0,0,7.1,59.3,9,65.7s9.8,33.8,12,39.4
		c1,2.4,2,7.3,3,12.6C429,429.1,434.1,428.8,439,427.4z"/>
	<line class="st9" x1="404.5" y1="307.1" x2="424.8" y2="291"/>
	<line class="st9" x1="374.9" y1="292.5" x2="385.4" y2="301.1"/>
	<path class="st2" d="M419,110.5c0,0-8.6-5.1-8.4-2.3s3.9,4.7,3.9,4.7s-12.4-1.8-14.3-1s1.4,1.8,1.4,1.8s-15.3,11.8-20.6,19.8
		s-10,19.8-4.5,28.8s13.5,16.1,27.1,20s26.9-0.2,35.9-3.9s18-14.3,16.5-27.6s-13.4-27.2-22.2-36.6s-14.3-8-14.3-6.7
		C419.3,108.4,419.2,109.4,419,110.5z"/>
	<path class="st7" d="M397.8,166.2l-2,15.1c0,0-14.3,4.7-19.6,6.9s-7.6,4.9-8.6,7.2s-15,35-15.6,38.1s0.4,4.5,4.7,6.5
		s16.3-5.3,16.3-5.3l1.6,5.5c0,0-7.9,13.3-9.2,17.6c-1.4,4.3-3.5,17.1-3.5,17.1s14.9,7.5,38.4,6.9s35.1-7.1,35.1-7.1
		s-2.5-12.8-5.3-20.2s-5.1-10.4-5.1-13.3s8.6-18.2,8.6-18.2l18.2,8.6c0,0-4.3-14.9-5.5-24.9s-3.2-11.6-7.1-15.2s-21.2-8.6-21.8-9
		s0.8-16.9,0.8-16.9S403.3,169.5,397.8,166.2z"/>
	<path class="st2" d="M409.2,176.5c2.7-1,6-3.6,8.6-5.9c0.2-2.8,0.4-5,0.4-5s-14.8,3.9-20.3,0.6l-1.4,10
		C399.5,178.9,404.5,178.3,409.2,176.5z"/>
	<path class="st8" d="M430,254.4c-2.8-7.4-5.1-10.4-5.1-13.3s8.6-18.2,8.6-18.2l18.2,8.6c0,0-4.3-14.9-5.5-24.9
		c-0.6-5.4-1.5-8.4-2.8-10.5c-27.9,3.6-59-2.8-71.4-5.8c-2,1.2-3.5,3-4.5,5.1c-1,2.4-15,35-15.6,38.1s0.4,4.5,4.7,6.5
		s16.3-5.3,16.3-5.3l1.6,5.5c0,0-7.9,13.3-9.2,17.6c-1.4,4.3-3.5,17.1-3.5,17.1s14.9,7.5,38.4,6.9s35.1-7.1,35.1-7.1
		S432.8,261.9,430,254.4z"/>
	<path class="st9" d="M375.5,229.2c0,0-3.9-8.2-2.8-12.4s1.8-5.3,1.8-5.3"/>
	<path class="st8" d="M446.3,206.6c-0.6-5.4-1.5-8.4-2.8-10.5c-27.9,3.6-59-2.8-71.4-5.8c-2,1.2-3.5,3-4.5,5.1
		c-0.3,0.8-2.3,5.4-4.7,11.1c11,3,53.1,13.4,84.9,8.5C447.1,212.1,446.6,209.2,446.3,206.6z"/>
	<path class="st7" d="M401.7,129.7l25,16.1l-0.7,6.5c0,0,4.5-4.4,5.1,0.4s-1,7.2-4.1,8.6s-4.8,1-4.8,1s-7.5,8.2-13,10.3
		s-11.3,2.6-14-1.9s-6.5-12.5-5.5-17.3s10.3-23.6,10.3-23.6H401.7z"/>
	<path class="st9" d="M404.1,144.9c0,1.2-0.4,2.4-1.2,3.3c-1.2,1.2-3.9,2.8-3.9,3.9s2.5,3.5,4.9,3.3"/>
	<path class="st9" d="M399.8,158.1c2.4,1.6,5.5,1.5,7.9-0.2"/>
	<path class="st9" d="M409.2,147.9c0,0,4.3-1.6,6.7,1.8"/>
	<path class="st9" d="M395.9,145.9c0,0,3.5-1.6,5.3,0.4"/>
	<path class="st9" d="M398,139.2c1.3-1.6,3.5-2.2,5.5-1.6"/>
	<path class="st9" d="M411.2,139.6c0,0,5.5,0.2,6.7,5.3"/>
	<path class="st7" d="M361,227c0,0-6.1,2.4-8,6.1s-1.6,12.4,6.1,14.5s64.1-9.2,64.1-9.2c1.4,2.1,2.9,4.1,4.5,6.1
		c1.4,1.4,4.9,4.1,5.1,5.3s0.6,8.6,2.2,9s1-3.5,1-3.5s2.5-3.7,2.5-5.5s0.4-7.4,0-8.8s-9.6-9.4-11.6-10s-52.2-2-56.9-2.8
		S362.6,226.8,361,227z"/>
	<path class="st10" d="M417,177l-6-4c-1.1-0.7-1.4-2.1-0.6-3.2l12.1-18.2c0.7-1.1,2.1-1.4,3.2-0.6l6,4c1.1,0.7,1.4,2.1,0.6,3.2
		l-12.1,18.2C419.5,177.4,418,177.7,417,177z"/>
	<path class="st11" d="M429,173.4c0,0,1.2-3.2,2.5-5.5s1.2-3.4,0.4-3.4c-1.9,0.3-3.5,1.8-3.9,3.7c-0.4,1.9-0.5,3.9-0.4,5.8
		L429,173.4z"/>
	<path class="st11" d="M418.4,185.5c0,0,10.1-10.1,10.4-10.9s0-12.4-0.1-15.6c0-0.5-0.4-0.9-0.9-1l0,0c-0.5-0.1-1.1,0.2-1.2,0.8
		c0,0.1,0,0.1,0,0.2l-0.8,9.3l-2.3-11.7c-0.1-0.5-0.5-0.8-1-0.8l0,0c-0.6,0-1,0.4-1,1c0,0,0,0.1,0,0.1l0.6,13l-2.9-11.1
		c-0.2-0.6-0.7-0.9-1.3-0.8c0,0,0,0,0,0l0,0c-0.5,0.1-0.8,0.6-0.8,1.2l1.3,12l-2.5,2.1v-4.2l-3-5c-0.2-0.4-0.7-0.5-1.1-0.3l0,0
		c-0.4,0.2-0.6,0.7-0.4,1.1l2,4.4c0,0-3.9,15.9-4.1,16.4s0.7,3.4,1.2,4.4s24.2,51.2,25.6,53.2s11,4.9,15.2,0.4s2.8-9.2,0.5-14.5
		S418.4,185.5,418.4,185.5z"/>
</g>
<g id="freepik--character-1--inject-67">
	<path class="st3" d="M153.2,210.6l0.8-1l12.4-16.9c0,0,1.7-10.1,2.5-12.6s2.5-7.8,3.1-9.8s1.1-4.2,2.2-3.4s1.1,4.2,0.6,5.9
		c-0.5,1.5-0.6,3.2-0.3,4.8c0.3,0.8,15.1-11.8,16.5-10.6s-0.6,6.4-3.4,10.1s-14.3,16.8-14.3,16.8s-13.1,35.2-17.1,40.9
		s-4.8,3.1-8.7,0s-9-10.1-9-10.1L153.2,210.6z"/>
	<path class="st3" d="M173.6,187.1c0,0,1.4-5,2.8-6.2s6.7-4.5,6.7-4.5l3.6-11.2c0,0,1.1-0.8,0.8,1.7s-0.8,8.1-1.7,10.6s-4.5,7-4.5,7
		"/>
	<polygon class="st8" points="133,167.8 154.6,210.1 138.1,226.8 133.3,210.9 	"/>
	<polygon class="st12" points="136.1,220.2 138.1,226.8 154.6,210.1 151.6,204.2 	"/>
	<path class="st2" d="M81.4,446l-2,7.9c0,0-11.7,6.5-12.6,7.4s-0.6,4.7-0.6,4.7h33.6c0.2-2.9-0.1-5.8-0.7-8.7
		c-0.5-3.5-0.8-7.1-0.9-10.6L81.4,446z"/>
	<path class="st3" d="M66.2,466h33.6c0-0.7,0-1.4,0-2.2H66.2C66.1,465,66.2,466,66.2,466z"/>
	<path class="st3" d="M67.5,461c2.3-2,5.1-3.2,8.1-3.6c5.4-0.9,10.3,1.1,11.4,2.2s1.8,4.1,1.8,4.1l-22.6,0.2c-0.6-0.9-0.3-2,0.6-2.6
		C67,461.1,67.2,461,67.5,461z"/>
	<path class="st3" d="M96.3,452.4c0,2-0.7,3.5-1.5,3.5s-1.5-1.6-1.5-3.5s0.7-3.5,1.5-3.5S96.3,450.4,96.3,452.4z"/>
	<path class="st2" d="M165.2,446l2,7.9c0,0,11.7,6.5,12.6,7.4s0.5,4.7,0.5,4.7h-33.6c-0.2-2.9,0.1-5.8,0.7-8.7
		c0.5-3.5,0.8-7.1,0.9-10.6L165.2,446z"/>
	<path class="st3" d="M180.3,466h-33.6c-0.1-0.7-0.1-1.4-0.1-2.2h33.7C180.4,464.6,180.4,465.3,180.3,466z"/>
	<path class="st3" d="M179.1,461c-2.3-2-5.1-3.2-8.1-3.6c-5.4-0.9-10.3,1.1-11.4,2.2s-1.8,4.1-1.8,4.1l22.6,0.2
		c0.6-0.9,0.3-2-0.6-2.6C179.6,461.1,179.3,461,179.1,461z"/>
	<path class="st3" d="M150.2,452.4c0,2,0.7,3.5,1.5,3.5s1.5-1.6,1.5-3.5s-0.7-3.5-1.5-3.5S150.2,450.4,150.2,452.4z"/>
	<polygon class="st3" points="81,277.7 79.9,295.2 81.4,446 98.1,446.7 114.9,307.5 117.1,306.7 148.4,446.7 165.2,446 157.7,352.1 
		146.5,271.6 	"/>
	<polyline class="st13" points="116.4,282.4 116.4,295.2 119.8,289.4 120.4,280.7 	"/>
	<path class="st8" d="M92.5,165.8c0,0-37.8,16.5-38.3,18.2s-10.6,43.4-9,47.3c2.1,4.5,7.3,6.7,12,5c5.3-2,10.4-22.4,10.4-22.4
		s11.8,35.8,11.8,39.4s1.1,26,1.1,26s21.5,3.1,39.4-1.1s26.6-6.7,26.6-6.7l-8.4-51.2c0,0-4.5-50.6-5-52.6s-32.5-2.5-35-2.2
		S92.5,165.8,92.5,165.8z"/>
	<path class="st12" d="M63.8,226c-1.3-4.1-3.6-7.9-6.7-10.9c-3.1-2.8-7.3-1.2-10.1,0.5c-1.5,7.8-2.5,14.3-1.8,15.7
		c2.1,4.5,7.3,6.7,12,5C59.6,235.5,62,230.8,63.8,226z"/>
	<path class="st6" d="M74.9,237l63.7-13.4l-0.5-3.2c0,0-0.1-1-0.2-2.8l-64.7,13.6C73.7,233.1,74.3,235,74.9,237z"/>
	<path class="st12" d="M146.5,271.6l-6.3-38.3l-62.6,13c0.8,2.4,1.3,4.8,1.7,7.2c0,3.6,1.1,26,1.1,26s21.5,3.1,39.5-1.1
		S146.5,271.6,146.5,271.6z"/>
	<path class="st12" d="M98.1,165.6c-2.5,0.3-5.6,0.3-5.6,0.3s-7.1,3.1-15.2,6.8l32.7,33.8c0,0,7-33.7,6.4-36.6
		c-0.3-1.4-0.7-2.7-1.2-4C107.2,165.5,99.3,165.4,98.1,165.6z"/>
	<path class="st3" d="M108.7,156.1c0,0,1.7,14.6,2.5,17.4s-4.8,22.4-4.8,22.4s-16.2-16.5-18.2-21.3s-6.4-21.3-6.4-21.3
		S96.1,160.5,108.7,156.1z"/>
	<path class="st2" d="M81.8,153.2c0,0,1,3.8,2.3,8.2c0.7,0.4,1.5,0.8,2.5,1.3c5.2,2.8,11.1,3.8,17,3.1c2.5-0.4,4.6-2,5.8-4.2
		c-0.4-3.1-0.7-5.6-0.7-5.6C96.1,160.5,81.8,153.2,81.8,153.2z"/>
	<path class="st3" d="M101.5,119.3c0,0,4.2,8.5,7.1,12.2c2.8,3.7,7.4,11.9,5.4,16.7s-3.3,13-9.6,13.9c-5.9,0.7-11.8-0.4-17-3.1
		c-5.1-2.6-5.7-3.4-5.7-3.4s-4.2,0-6.8-2s-7.6-8.2-6.2-13.6s4.8-5.9,4.8-5.9s-7.1-2.8-2.6-9.9s14.2-9.6,18.7-9.6
		S101.5,119.3,101.5,119.3z"/>
	<path class="st9" d="M100.1,128.7c0.7,1,1.5,1.9,2.6,2.6c2,1.4,4.8,0.6,4,3.1s-2.8,3.4-4.5,3.1"/>
	<path class="st9" d="M106.9,140.6c0,0-5.4,3.1-9.1,2.8c-1.9,0-3.8-0.6-5.4-1.7"/>
	<path class="st2" d="M95,143.4c0,0,2,7.1,4.8,4.8c1.8-1.6,3-3.7,3.4-6C100.6,143.2,97.8,143.6,95,143.4z"/>
	<path class="st6" d="M94.7,131.1c0.6,1,0.6,2.1,0,2.5s-1.6-0.1-2.2-1.1s-0.6-2.1,0-2.5S94.1,130.1,94.7,131.1z"/>
	<path class="st6" d="M103.8,126.8c0.6,1,0.6,2.1,0,2.5s-1.6-0.1-2.2-1.1s-0.6-2.1,0-2.5S103.1,125.9,103.8,126.8z"/>
	<path class="st9" d="M88.8,130.3c0,0,0.8-3.8,3.8-4.3"/>
	<path class="st9" d="M98.5,124.4c0,0,1.7-3.1,4.3-1.8"/>
	<path class="st2" d="M74.3,128.1c0,0,18.4,0,19.8-3.1s-2.8-5.4-2.8-5.4s15.9,0.6,17.6-4.2s-5.7-6.8-7.9-6.8h-3.4
		c0,0-0.8-7.1-9.1-5.4s-24.1,12.5-26,18.7c-1.9,6.2-6.5,8.2-3.1,15.6s12.7,13.3,12.7,13.3s-1.4-5.4,1.4-5.7s7.6,1.7,8.5,1.7
		s3.4-2.3,2-3.7s-2.8-2.3-3.1-3.1s1.4-3.7,0.3-6.2S74.3,128.1,74.3,128.1z"/>
	<path class="st10" d="M68,142.8l6.6-4.4c1.1-0.7,2.5-0.4,3.2,0.6l12.9,19.5c0.7,1.1,0.4,2.5-0.6,3.2l-6.6,4.4
		c-1.1,0.7-2.5,0.4-3.2-0.6L67.4,146C66.7,144.9,66.9,143.5,68,142.8z"/>
	<path class="st14" d="M70.9,162.1c0,0-1.3-3.4-2.6-5.8s-1.3-3.5-0.4-3.5c2,0.4,3.6,1.9,4.1,3.9c0.4,2,0.6,4.1,0.4,6.2L70.9,162.1z"
		/>
	<path class="st14" d="M82.1,175c0,0-10.6-10.6-11-11.6s0.1-13,0.2-16.5c0-0.5,0.4-0.9,0.9-1l0,0c0.6-0.1,1.2,0.3,1.3,0.9
		c0,0,0,0.1,0,0.1l0.8,9.8l2.4-12.4c0.1-0.5,0.6-0.9,1.1-0.9l0,0c0.6,0,1.1,0.5,1.1,1.1c0,0,0,0,0,0l-0.7,13.8l3.1-11.8
		c0.2-0.6,0.8-1,1.4-0.8c0,0,0,0,0,0l0,0c0.5,0.1,0.8,0.6,0.8,1.1l-1.4,12.6l2.6,2.2v-4.5l3.1-5.3c0.2-0.4,0.7-0.6,1.2-0.3l0,0
		c0.4,0.2,0.6,0.7,0.4,1.1l-2.1,4.6c0,0,4.1,16.8,4.3,17.3s-0.7,3.6-1.3,4.7s-25.6,54.1-27,56.1s-11.6,5.2-16,0.4s-3-9.7-0.6-15.3
		S82.1,175,82.1,175z"/>
	<line class="st13" x1="85.8" y1="288.5" x2="100" y2="296.6"/>
	<line class="st13" x1="143.2" y1="282.9" x2="134.6" y2="294"/>
</g>
<g id="freepik--Floor--inject-67">
	<line class="st9" x1="30" y1="466" x2="477" y2="466"/>
</g>
</svg>
